<?xml version="1.0" encoding="UTF-8"?>
<svg id="m" data-name="Layer 14" xmlns="http://www.w3.org/2000/svg" width="128" height="128" viewBox="0 0 128 128">
  <defs>
    <style>
      .o {
        stroke: #8593a9;
      }

      .o, .p {
        fill: none;
        stroke-linecap: round;
        stroke-linejoin: round;
        stroke-width: 2px;
      }

      .p {
        stroke: #ff2038;
      }
    </style>
  </defs>
  <g id="n" data-name="People_Strategy-2">
    <g>
      <g>
        <path class="o" d="m40.43,100v-20.05c-11.92-11.25-12.64-30.21-1.59-42.35,5.58-6.13,13.42-9.61,21.62-9.6,23.57,0,27.73,20.8,36.53,43.2h-9.43v9.6c0,5.3-4.22,9.6-9.43,9.6h-4.71v9.6"/>
        <circle class="p" cx="48" cy="58" r="6"/>
        <circle class="p" cx="68" cy="68" r="6"/>
        <circle class="p" cx="68" cy="48" r="6"/>
        <path class="p" d="m53.39,55.3c3.04-1.52,6.09-3.04,9.13-4.56"/>
        <path class="p" d="m53.74,60.87c2.89,1.45,5.79,2.89,8.69,4.33"/>
      </g>
      <circle class="o" cx="64" cy="64" r="63"/>
    </g>
  </g>
</svg>