<svg id="bc6774c2-1e9b-4a4f-ace7-a5f5c602d8b1" data-name="Capa 1" xmlns="http://www.w3.org/2000/svg" xmlns:xlink="http://www.w3.org/1999/xlink" width="569.8" height="450.7" viewBox="0 0 569.8 450.7">
  <defs>
    <mask id="abd4f01b-0edd-4efb-91c5-89a7fc292e76" x="56.59" y="0" width="513.2" height="450.73" maskUnits="userSpaceOnUse">
      <g transform="translate(0 -0.3)">
        <g id="a3ca8dad-d042-45bf-8d91-bec376d15244" data-name="mask-2">
          <polygon id="b12f989e-5412-442b-ab79-913bae428b4d" data-name="path-1" points="56.6 0.3 569.8 0.3 569.8 451 56.6 451 56.6 0.3" style="fill: #fff;fill-rule: evenodd"/>
        </g>
      </g>
    </mask>
    <mask id="a7bf4f13-0fc5-482b-a4a2-854bcbb8e9f5" x="0" y="0.73" width="570" height="450" maskUnits="userSpaceOnUse">
      <g transform="translate(0 -0.3)">
        <g id="e5158fa7-3a9e-43c0-8fe6-4d34d90341b3" data-name="mask-4">
          <polygon id="b9f869fd-630d-42e1-94ed-7b0140c347be" data-name="path-3" points="0 451 570 451 570 1 0 1 0 451" style="fill: #fff;fill-rule: evenodd"/>
        </g>
      </g>
    </mask>
  </defs>
  <g id="ac0b4d9f-fa5c-49a7-a8bd-ba24ca690598" data-name="Page-1">
    <g id="ad365c7d-b33d-4b34-b6a0-1bb4cd6477c1" data-name="WEB-DESIGN">
      <g id="fa07060a-b20f-45d2-a19a-48ee32cbdd53" data-name="Group-102">
        <g id="a394f432-fddd-4d39-8073-794e508431ae" data-name="Group-3">
          <g style="mask: url(#abd4f01b-0edd-4efb-91c5-89a7fc292e76)">
            <path id="fd94c608-b09e-444c-8057-c4385f57e270" data-name="Fill-1" d="M428.8,113.8c-2.5,2.7-5.4,5.1-7.1,8.4-11.1,22.8,40.7,47.8,54,55.9,40.6,24.6,101.9,57.8,93.3,115.1-4.9,32.5-35.7,56.3-67.7,63.4-30,6.6-132.2-28.2-146.3,7.3-7.8,19.7,13.7,32.9,14.9,51.1,3.5,52.4-78.7,33.9-106.2,27.9-51.2-11.2-111.7-39.5-135.7-89-7.8-16.1-6.7-38.1,7.4-49.1,12.1-9.4,25.5-11.4,29-28.2s-6.1-33.4-16.3-44.5c-26.7-28.9-81.1-40.8-90.4-81.9-2.2-9.6-1.4-20.2,4-28.5S77.8,108,88.1,106.4c41.3-6.6,82.9,7.1,122.5,16.9,18.9,4.7,42.4,7.1,54.3-8.2s3.2-38.8-4.2-57.6C213.5-63.2,502.5,32,428.8,113.8" transform="translate(0 -0.3)" style="fill: #f2f1f0;fill-rule: evenodd"/>
          </g>
        </g>
        <path id="e052f1e7-6ab8-467b-bbe2-f6581ce94ea5" data-name="Fill-4" d="M39.7,265.9c3.4-6.6,7-13.3,8-20.8,2.6-20.6-16.7-22.5-28.2-32.9-9.9-8.9-11.2-24.8-7-37.3s14.6-28.8,6.3-40.8c-2.7-4-7-6.5-10.4-9.9C-2,113.9-1.7,102,3.6,91.9a34.5,34.5,0,0,1,44.6-16c10.5,4.4,18.3,13.4,16.8,28-.5,4.8-2.2,9.4-1.8,14.2,1.3,14.6,18.6,20,30.7,27.6s20.3,20.1,18.3,33.2c-2.4,15.4-16,29.1-1,43.4,5.5,5.2,12.6,8,19.3,10.9,23.4,10.2,32.3,34.8,16.6,56.7-9.3,12.9-23.8,20.3-37.8,27.3-15.2,3.5-31.1,7.1-46.5,3-26-6.9-34.7-31.6-23.1-54.3" transform="translate(0 -0.3)" style="fill: #e89f40;fill-rule: evenodd"/>
        <path id="f8b5d3cf-8086-4109-84ff-6511329d0abf" data-name="Fill-6" d="M83,234.9c6.6,19.4,13.1,38.9,18.8,58.6.7,2.1,1.3,4.2,1.9,6.3a55.1,55.1,0,0,0,15.6-7.2c11.2-7.6,16.1-18.1,14.7-31.2a1.5,1.5,0,0,1,1.3-1.5,1.4,1.4,0,0,1,1.5,1.2c2.7,25.6-18.2,36.3-28.7,40.1l-3.7,1.2c1.9,6.9,3.7,13.9,5.4,20.9,1.1,5,2.2,10.1,3,15.2.4,2.6.7,5.2.9,7.9a37.7,37.7,0,0,1-.1,8.2h0a2.8,2.8,0,0,1-3.1,2.4,2.7,2.7,0,0,1-2.3-3.1h0a34.5,34.5,0,0,0,.1-7.2,64.3,64.3,0,0,0-.8-7.4c-.7-5-1.6-9.9-2.7-14.9-2.1-9.9-4.7-19.8-7.5-29.6S91,273,87.6,262.1a13.9,13.9,0,0,1-3.2,1.4,25.4,25.4,0,0,1-14.8,1.1c-6.2-1.7-11.4-6.1-15.3-13.3a1.3,1.3,0,0,1,.6-1.8,1.3,1.3,0,0,1,1.8.5c3.5,6.5,8.1,10.5,13.6,11.9s13.5-.9,16.5-2.4c-2.4-7.8-5-15.6-7.5-23.3-4.3-13-8.7-25.9-13.2-38.9-4.4,1.5-28.4,8.2-38.3-13.6a1.4,1.4,0,1,1,2.5-1.1c4.1,9,11.3,13.7,21.3,14.1a39.5,39.5,0,0,0,13.6-1.9c-2-5.6-3.9-11.1-5.9-16.6Q50.8,154.1,41.7,130h0c-.1.1-14,4.9-22.4-6.5a1.4,1.4,0,0,1,.3-2,1.4,1.4,0,0,1,1.9.3c7.1,9.7,18.5,5.9,19.3,5.6l-2.6-6.9h0a1.2,1.2,0,0,1,.6-1.4,1.1,1.1,0,0,1,1.5.6q7.8,19.8,15.3,39.6c.1,0,.4-.1.6,0a14.3,14.3,0,0,0,9.3-3c2.9-2.5,4.6-6.4,5-11.6a1.4,1.4,0,0,1,1.5-1.3,1.4,1.4,0,0,1,1.2,1.5c-.4,6-2.5,10.5-6,13.5a13.5,13.5,0,0,1-4.6,2.6,16.1,16.1,0,0,1-6,1c1.9,5,3.7,10.1,5.6,15.1" transform="translate(0 -0.3)" style="fill: #faaf40;fill-rule: evenodd"/>
        <path id="ba08dca6-d998-4001-b2b5-968fa0da601d" data-name="Fill-8" d="M251,417.5c0,4.7-28.4,8.5-63.5,8.5s-63.5-3.8-63.5-8.5,28.4-8.5,63.5-8.5,63.5,3.8,63.5,8.5" transform="translate(0 -0.3)" style="fill: #e0e0e0;fill-rule: evenodd"/>
        <path id="eab7833d-e647-4335-8d48-378bbebfada7" data-name="Fill-10" d="M537,406.5c0,3.6-28.7,6.5-64,6.5s-64-2.9-64-6.5,28.7-6.5,64-6.5,64,2.9,64,6.5" transform="translate(0 -0.3)" style="fill: #e0e0e0;fill-rule: evenodd"/>
        <polygon id="e80ab1f9-d15b-44e9-bcbe-15efb574a1d7" data-name="Fill-12" points="78 336.4 70.4 336.4 70.4 328.7 65.6 328.7 65.6 336.4 58 336.4 58 341.1 65.6 341.1 65.6 348.7 70.4 348.7 70.4 341.1 78 341.1 78 336.4" style="fill: #1754be;fill-rule: evenodd"/>
        <path id="b888f3e7-ba70-4df5-8211-5157e94cec36" data-name="Fill-14" d="M84,322.5a4.5,4.5,0,1,1-4.5-4.5,4.5,4.5,0,0,1,4.5,4.5" transform="translate(0 -0.3)" style="fill: #8cb9ff;fill-rule: evenodd"/>
        <path id="ad7c7e27-ebc0-4696-8ae1-9608bf088082" data-name="Fill-16" d="M473.2,382H118.8A25.8,25.8,0,0,1,93,356.3V82.7A25.8,25.8,0,0,1,118.8,57H473.2A25.8,25.8,0,0,1,499,82.7V356.3A25.8,25.8,0,0,1,473.2,382" transform="translate(0 -0.3)" style="fill: #ffcd51;fill-rule: evenodd"/>
        <path id="a9d29fb0-f59f-46e7-89ca-193b39fb298d" data-name="Fill-18" d="M122.7,371A16.7,16.7,0,0,1,106,354.3V85.7A16.7,16.7,0,0,1,122.7,69H470.3A16.7,16.7,0,0,1,487,85.7V354.3A16.7,16.7,0,0,1,470.3,371Z" transform="translate(0 -0.3)" style="fill: #e89f40;fill-rule: evenodd"/>
        <path id="b6d6c948-aa91-417a-8dfc-6e1040bc4f04" data-name="Fill-20" d="M466.2,362H126.8A10.8,10.8,0,0,1,116,351.2V87.8A10.8,10.8,0,0,1,126.8,77H466.2A10.8,10.8,0,0,1,477,87.8V351.2A10.8,10.8,0,0,1,466.2,362" transform="translate(0 -0.3)" style="fill: #8cb9ff;fill-rule: evenodd"/>
        <path id="ea0db2c3-27d6-4ba2-a892-203d41374917" data-name="Fill-22" d="M69,362a46.6,46.6,0,0,0,39.7,22H484.3A46.6,46.6,0,0,0,524,362Z" transform="translate(0 -0.3)" style="fill: #e89f40;fill-rule: evenodd"/>
        <path id="ac224145-ac95-4f30-881a-10a128975132" data-name="Fill-24" d="M73.9,368H519.1a48.8,48.8,0,0,0,4.9-7H69a48.8,48.8,0,0,0,4.9,7" transform="translate(0 -0.3)" style="fill: #ffcd51;fill-rule: evenodd"/>
        <g style="mask: url(#a7bf4f13-0fc5-482b-a4a2-854bcbb8e9f5)">
          <polygon id="e870641c-9fd2-46d9-81ac-37c86924287a" data-name="Fill-26" points="144 303.7 245 303.7 245 246.7 144 246.7 144 303.7" style="fill: #1754be;fill-rule: evenodd"/>
        </g>
        <g style="mask: url(#a7bf4f13-0fc5-482b-a4a2-854bcbb8e9f5)">
          <polygon id="ae00d3c2-de58-42c7-9ffd-ab4063853644" data-name="Fill-28" points="243 106.7 281 106.7 281 101.7 243 101.7 243 106.7" style="fill: #30c5cc;fill-rule: evenodd"/>
        </g>
        <g style="mask: url(#a7bf4f13-0fc5-482b-a4a2-854bcbb8e9f5)">
          <polygon id="e9ac750a-efbf-4f16-9d6b-f2fcab0f5277" data-name="Fill-29" points="194 106.7 217 106.7 217 101.7 194 101.7 194 106.7" style="fill: #31556f;fill-rule: evenodd"/>
        </g>
        <g style="mask: url(#a7bf4f13-0fc5-482b-a4a2-854bcbb8e9f5)">
          <polygon id="a19afdea-5dc0-49f8-864d-1caad8673c0a" data-name="Fill-30" points="141 106.7 187 106.7 187 101.7 141 101.7 141 106.7" style="fill: #31556f;fill-rule: evenodd"/>
        </g>
        <g style="mask: url(#a7bf4f13-0fc5-482b-a4a2-854bcbb8e9f5)">
          <polygon id="ba99c019-0517-4e72-9556-d23a57a4373f" data-name="Fill-31" points="224 106.7 234 106.7 234 101.7 224 101.7 224 106.7" style="fill: #31556f;fill-rule: evenodd"/>
        </g>
        <g style="mask: url(#a7bf4f13-0fc5-482b-a4a2-854bcbb8e9f5)">
          <polygon id="bbd9789a-ac69-482a-bc44-ad559d6932f3" data-name="Fill-32" points="290 106.7 313 106.7 313 101.7 290 101.7 290 106.7" style="fill: #30c5cc;fill-rule: evenodd"/>
        </g>
        <g style="mask: url(#a7bf4f13-0fc5-482b-a4a2-854bcbb8e9f5)">
          <polygon id="ba031412-e2dc-4495-be9f-aa1cccb1a7a4" data-name="Fill-33" points="243 121.7 257 121.7 257 116.7 243 116.7 243 121.7" style="fill: #31556f;fill-rule: evenodd"/>
        </g>
        <g style="mask: url(#a7bf4f13-0fc5-482b-a4a2-854bcbb8e9f5)">
          <polygon id="a5104e0b-ca8a-4a5e-9e77-ac717e4b4cf8" data-name="Fill-34" points="263 121.7 277 121.7 277 116.7 263 116.7 263 121.7" style="fill: #30c5cc;fill-rule: evenodd"/>
        </g>
        <g style="mask: url(#a7bf4f13-0fc5-482b-a4a2-854bcbb8e9f5)">
          <polygon id="e61dde84-a10f-493a-a786-13bc1f2c8545" data-name="Fill-35" points="170 121.7 193 121.7 193 116.7 170 116.7 170 121.7" style="fill: #31556f;fill-rule: evenodd"/>
        </g>
        <g style="mask: url(#a7bf4f13-0fc5-482b-a4a2-854bcbb8e9f5)">
          <polygon id="a1cec410-fe78-443f-91e0-c7e9b5f0d45d" data-name="Fill-36" points="140 121.7 163 121.7 163 116.7 140 116.7 140 121.7" style="fill: #31556f;fill-rule: evenodd"/>
        </g>
        <g style="mask: url(#a7bf4f13-0fc5-482b-a4a2-854bcbb8e9f5)">
          <polygon id="b44aab98-b178-4751-9b09-949483abb7ec" data-name="Fill-37" points="200 121.7 238 121.7 238 116.7 200 116.7 200 121.7" style="fill: #31556f;fill-rule: evenodd"/>
        </g>
        <g style="mask: url(#a7bf4f13-0fc5-482b-a4a2-854bcbb8e9f5)">
          <path id="f68886dc-face-4f02-919c-2587741d80ea" data-name="Fill-38" d="M207,407.7c-2.4-7.8-7-40.5-8.1-53.3-.2-2.7-29.7-14.4-29.7-14.4-17.3-.4-26.2,6.4-26.2,6.4l41.5,14.2c0,18.9,16,47.4,16,47.4l6.5-.3" transform="translate(0 -0.3)" style="fill: #1754be;fill-rule: evenodd"/>
        </g>
        <g style="mask: url(#a7bf4f13-0fc5-482b-a4a2-854bcbb8e9f5)">
          <path id="b097755d-fec2-4aff-a83b-36b6808e759b" data-name="Fill-39" d="M171.8,364.5l-12.4,43,7.1,1.5c3.1-10.1,20.9-44.9,21.4-49,.2-1.8.1-3.2-.6-3.7s-20.7-12.5-26.5-13.8c-7.8-1.7-19.4-4.5-19.4-4.5a23.1,23.1,0,0,0-5.2,17.8c1.2,11.1,35.6,8.7,35.6,8.7" transform="translate(0 -0.3)" style="fill: #1754be;fill-rule: evenodd"/>
        </g>
        <g style="mask: url(#a7bf4f13-0fc5-482b-a4a2-854bcbb8e9f5)">
          <path id="f9cadc96-c028-4243-91ba-5581e26fd5d5" data-name="Fill-40" d="M154.7,289s-13.7,1.2-14.3,4.9,6.5,27.1,6.5,27.1L140,339.4s19.7,4.9,29.3,1.3c.9.4,2.5-19.3,2.5-19.3l3.4-9.7,4.3,14.6,10,13.9,6.5-5.3-7.2-12.6s-11.2-25.4-14.2-28.4c-5.6-5.5-19.9-4.9-19.9-4.9" transform="translate(0 -0.3)" style="fill: #ffcd51;fill-rule: evenodd"/>
        </g>
        <g style="mask: url(#a7bf4f13-0fc5-482b-a4a2-854bcbb8e9f5)">
          <path id="a773efb9-8363-40fd-97ec-14e652c1cb38" data-name="Fill-41" d="M165.3,289.2l-1-14.2h-10v13.3c-1.3.1,1.4,10.7,9.4,10.7,0,0,3.8-1.4,1.6-9.8" transform="translate(0 -0.3)" style="fill: #ffbfa4;fill-rule: evenodd"/>
        </g>
        <g style="mask: url(#a7bf4f13-0fc5-482b-a4a2-854bcbb8e9f5)">
          <path id="bfe83802-0fd8-4700-87ef-4bce2970848d" data-name="Fill-42" d="M174.7,261c-.9-3.6-6.5-4.7-15.4-3.6-6,.7-7.4,6.2-7.6,10.4h-.2a5,5,0,0,0-3.5,4.9,5.6,5.6,0,0,0,1.2,3,4.9,4.9,0,0,0,3.7,2.3,4.8,4.8,0,0,0,1.2,0c2.5,5.2,7.2,11.7,13.6,10.9,9.5-6.6,7-27.9,7-27.9" transform="translate(0 -0.3)" style="fill: #ffbfa4;fill-rule: evenodd"/>
        </g>
        <g style="mask: url(#a7bf4f13-0fc5-482b-a4a2-854bcbb8e9f5)">
          <path id="e1d74f54-18d6-4b72-b023-fcd0273ccb6d" data-name="Fill-43" d="M166.2,264.7c4.7.6,9.4.2,8.9,3.3,2.8-7-1.3-10.9-5.9-13.1s-11.8-3.2-16.8,1S148,270,148,270c3.3-1.6,13.5-5.9,18.2-5.3" transform="translate(0 -0.3)" style="fill: #59595b;fill-rule: evenodd"/>
        </g>
        <g style="mask: url(#a7bf4f13-0fc5-482b-a4a2-854bcbb8e9f5)">
          <path id="e0bf4b2f-5d29-4742-b700-427b72e1b5a1" data-name="Fill-44" d="M153,255.8s-4.1-11.1-11.9-8.4-4.2,18.6-5.1,25.5-5.7,7.2-7.5,4.1c-3.2,6.2,9.5,12.6,13.6,6.6s1.8-21.2,4.4-22.7,5.4.4,5.4.4Z" transform="translate(0 -0.3)" style="fill: #59595b;fill-rule: evenodd"/>
        </g>
        <g style="mask: url(#a7bf4f13-0fc5-482b-a4a2-854bcbb8e9f5)">
          <path id="a4de70b7-8768-42ee-97a1-20245a09dc1a" data-name="Fill-45" d="M141.2,292c-3.3,1.9-9.2,24.2-9.2,27.9S160.6,342,160.6,342s1.3-4.5,4.4-5.5c-.6-.3-21.4-20.3-21.4-20.3l5.5-15.6s0-13.2-7.9-8.6" transform="translate(0 -0.3)" style="fill: #ffcd51;fill-rule: evenodd"/>
        </g>
        <g style="mask: url(#a7bf4f13-0fc5-482b-a4a2-854bcbb8e9f5)">
          <polygon id="e4656252-b317-4ae7-a032-caecf3473274" data-name="Fill-46" points="158 344.7 187.7 343.7 207 351 174.3 352.7 158 344.7" style="fill: #363636;fill-rule: evenodd"/>
        </g>
        <g style="mask: url(#a7bf4f13-0fc5-482b-a4a2-854bcbb8e9f5)">
          <polygon id="b3ac89f5-a19e-44e0-9db9-4ee8b49f7f1a" data-name="Fill-47" points="174.7 352.7 158 346.4 158 344.7 176 351.1 174.7 352.7" style="fill: #59595b;fill-rule: evenodd"/>
        </g>
        <g style="mask: url(#a7bf4f13-0fc5-482b-a4a2-854bcbb8e9f5)">
          <polygon id="edd93121-c052-431b-80e7-ff3fed0a103b" data-name="Fill-48" points="175 352.7 184.8 325.7 217 327.5 207.4 351.6 175 352.7" style="fill: #59595b;fill-rule: evenodd"/>
        </g>
        <g style="mask: url(#a7bf4f13-0fc5-482b-a4a2-854bcbb8e9f5)">
          <path id="bc693d17-3783-4385-808c-3eba6d8c0a41" data-name="Fill-49" d="M194.6,338.4c-1,1.8-.7,3.8.6,4.4s3.2-.3,4.2-2.2.7-3.8-.6-4.4-3.2.3-4.2,2.2" transform="translate(0 -0.3)" style="fill: #8cb9ff;fill-rule: evenodd"/>
        </g>
        <g style="mask: url(#a7bf4f13-0fc5-482b-a4a2-854bcbb8e9f5)">
          <path id="a19bfd6c-be65-40eb-af66-650686269d95" data-name="Fill-50" d="M165.4,337s11.7,9,10.5,9.6-6.5.6-9.2-.9-5.7-3.4-5.7-3.4,1-5,4.4-5.3" transform="translate(0 -0.3)" style="fill: #ffbfa4;fill-rule: evenodd"/>
        </g>
        <g style="mask: url(#a7bf4f13-0fc5-482b-a4a2-854bcbb8e9f5)">
          <path id="ea4fa8e2-f7a0-4182-9cd8-ac0ccb804cf6" data-name="Fill-51" d="M166.6,407.1c2.1,2.1,9.2,5.2,12.8,6s3.1,3.9.3,3.9c-5.4,0-17.5-.6-23.4-.6-1-2.7.6-6.3,2.5-8.7.6-.7,7.5-.8,7.8-.6" transform="translate(0 -0.3)" style="fill: #363636;fill-rule: evenodd"/>
        </g>
        <g style="mask: url(#a7bf4f13-0fc5-482b-a4a2-854bcbb8e9f5)">
          <path id="ee10225f-e293-4f4f-97d6-a33088926b4e" data-name="Fill-52" d="M208.6,407.1c2.1,2.1,9.2,5.2,12.8,6s3.1,3.9.3,3.9c-5.4,0-17.5-.6-23.4-.6-1-2.7.6-6.3,2.5-8.7.6-.7,7.5-.8,7.8-.6" transform="translate(0 -0.3)" style="fill: #363636;fill-rule: evenodd"/>
        </g>
        <g style="mask: url(#a7bf4f13-0fc5-482b-a4a2-854bcbb8e9f5)">
          <polygon id="ae425e39-c6af-4fd2-b343-98b88c777dfa" data-name="Fill-53" points="145 232.7 173 232.7 173 224.7 145 224.7 145 232.7" style="fill: #31556f;fill-rule: evenodd"/>
        </g>
        <g style="mask: url(#a7bf4f13-0fc5-482b-a4a2-854bcbb8e9f5)">
          <polygon id="be088f62-3731-416d-a0d1-c5dce2ad0a81" data-name="Fill-54" points="217 232.7 245 232.7 245 224.7 217 224.7 217 232.7" style="fill: #31556f;fill-rule: evenodd"/>
        </g>
        <g style="mask: url(#a7bf4f13-0fc5-482b-a4a2-854bcbb8e9f5)">
          <polygon id="f9a604b9-207b-4adc-a9a1-23cee22b9dab" data-name="Fill-55" points="181 232.7 209 232.7 209 224.7 181 224.7 181 232.7" style="fill: #31556f;fill-rule: evenodd"/>
        </g>
        <g style="mask: url(#a7bf4f13-0fc5-482b-a4a2-854bcbb8e9f5)">
          <polygon id="aaccfd8a-1edb-434e-9992-0cf4212b8f0b" data-name="Fill-56" points="338 106.9 248.2 128.7 240 95.6 329.8 73.7 338 106.9" style="fill: #b99a6f;fill-rule: evenodd"/>
        </g>
        <g style="mask: url(#a7bf4f13-0fc5-482b-a4a2-854bcbb8e9f5)">
          <polygon id="e58af137-0c87-4914-991b-5adb5b525841" data-name="Fill-57" points="313 87.4 247.1 103.7 246 99.1 311.9 82.7 313 87.4" style="fill: #fedb9b;fill-rule: evenodd"/>
        </g>
        <g style="mask: url(#a7bf4f13-0fc5-482b-a4a2-854bcbb8e9f5)">
          <polygon id="a0301046-9c7a-4aed-aee5-3f08a55eb8f6" data-name="Fill-58" points="304 98.3 249.1 111.7 248 107.2 302.9 93.7 304 98.3" style="fill: #fedb9b;fill-rule: evenodd"/>
        </g>
        <g style="mask: url(#a7bf4f13-0fc5-482b-a4a2-854bcbb8e9f5)">
          <polygon id="ac8d8cca-276e-4512-9259-4f75f4e952c6" data-name="Fill-59" points="277 114.3 251.1 120.7 250 116.1 275.9 109.7 277 114.3" style="fill: #fedb9b;fill-rule: evenodd"/>
        </g>
        <g style="mask: url(#a7bf4f13-0fc5-482b-a4a2-854bcbb8e9f5)">
          <polygon id="bb080d7a-2c0e-425e-b5ee-42ff30da2113" data-name="Fill-60" points="321 94.3 307.1 97.7 306 93.1 319.9 89.7 321 94.3" style="fill: #fff;fill-rule: evenodd"/>
        </g>
        <g style="mask: url(#a7bf4f13-0fc5-482b-a4a2-854bcbb8e9f5)">
          <polygon id="b2d999e7-e321-489c-a56e-f504a0da968f" data-name="Fill-61" points="143 215.7 244 215.7 244 133.7 143 133.7 143 215.7" style="fill: #fff;fill-rule: evenodd"/>
        </g>
        <g style="mask: url(#a7bf4f13-0fc5-482b-a4a2-854bcbb8e9f5)">
          <polygon id="beac4284-e232-43d9-93a5-80a308503cfc" data-name="Fill-62" points="252 217.7 450 217.7 450 180.7 252 180.7 252 217.7" style="fill: #4cb0dd;fill-rule: evenodd"/>
        </g>
        <g style="mask: url(#a7bf4f13-0fc5-482b-a4a2-854bcbb8e9f5)">
          <polygon id="b238258e-4112-4d64-8622-de745e40482b" data-name="Fill-63" points="390 212.7 444 212.7 444 186.7 390 186.7 390 212.7" style="fill: #fff;fill-rule: evenodd"/>
        </g>
        <g style="mask: url(#a7bf4f13-0fc5-482b-a4a2-854bcbb8e9f5)">
          <polygon id="eb82d126-bb13-44ac-829b-6e09d060509e" data-name="Fill-64" points="259 192.7 383 192.7 383 187.7 259 187.7 259 192.7" style="fill: #75d5ef;fill-rule: evenodd"/>
        </g>
        <g style="mask: url(#a7bf4f13-0fc5-482b-a4a2-854bcbb8e9f5)">
          <polygon id="bdab235f-01b0-43b5-bd24-57df0b94027d" data-name="Fill-65" points="259 201.7 383 201.7 383 196.7 259 196.7 259 201.7" style="fill: #75d5ef;fill-rule: evenodd"/>
        </g>
        <g style="mask: url(#a7bf4f13-0fc5-482b-a4a2-854bcbb8e9f5)">
          <polygon id="ac52b737-c366-4477-8fa8-0ad3ca07bac6" data-name="Fill-66" points="259 210.7 343 210.7 343 205.7 259 205.7 259 210.7" style="fill: #75d5ef;fill-rule: evenodd"/>
        </g>
        <g style="mask: url(#a7bf4f13-0fc5-482b-a4a2-854bcbb8e9f5)">
          <polygon id="ba5af328-3478-4a6e-9d8b-f993e4976b69" data-name="Fill-67" points="252 333.7 443 333.7 443 244.7 252 244.7 252 333.7" style="fill: #fff;fill-rule: evenodd"/>
        </g>
        <g style="mask: url(#a7bf4f13-0fc5-482b-a4a2-854bcbb8e9f5)">
          <polygon id="a4814aec-6b81-44c3-a803-eda4691de045" data-name="Fill-68" points="252 259.7 443 259.7 443 244.7 252 244.7 252 259.7" style="fill: #e89f40;fill-rule: evenodd"/>
        </g>
        <g style="mask: url(#a7bf4f13-0fc5-482b-a4a2-854bcbb8e9f5)">
          <polygon id="f718391f-a8a6-414b-ba5b-ea7cb97665a3" data-name="Fill-69" points="256 288.7 366 288.7 366 280.7 256 280.7 256 288.7" style="fill: #98dbe5;fill-rule: evenodd"/>
        </g>
        <g style="mask: url(#a7bf4f13-0fc5-482b-a4a2-854bcbb8e9f5)">
          <polygon id="b67ddcd6-f115-442a-a400-bbe263c89b80" data-name="Fill-70" points="256 301.7 355 301.7 355 293.7 256 293.7 256 301.7" style="fill: #98dbe5;fill-rule: evenodd"/>
        </g>
        <g style="mask: url(#a7bf4f13-0fc5-482b-a4a2-854bcbb8e9f5)">
          <polygon id="b23214c4-f007-4a78-953b-9afb833b664c" data-name="Fill-71" points="256 315.7 323 315.7 323 307.7 256 307.7 256 315.7" style="fill: #98dbe5;fill-rule: evenodd"/>
        </g>
        <g style="mask: url(#a7bf4f13-0fc5-482b-a4a2-854bcbb8e9f5)">
          <polygon id="b95981ee-0bf5-4a4c-a2db-38c89b7f011f" data-name="Fill-72" points="256 275.7 296 275.7 296 267.7 256 267.7 256 275.7" style="fill: #98dbe5;fill-rule: evenodd"/>
        </g>
        <g style="mask: url(#a7bf4f13-0fc5-482b-a4a2-854bcbb8e9f5)">
          <polygon id="b8617da6-fbc7-461b-9af1-6623bd4f7b4d" data-name="Fill-73" points="377 325.7 435 325.7 435 267.7 377 267.7 377 325.7" style="fill: #86d2e8;fill-rule: evenodd"/>
        </g>
        <g style="mask: url(#a7bf4f13-0fc5-482b-a4a2-854bcbb8e9f5)">
          <path id="a03e5b0f-af8a-4bec-984e-01e8e8e0c44e" data-name="Fill-74" d="M412,296.3a7.4,7.4,0,0,0,1.4-4.4v-4.5a7.3,7.3,0,0,0-7.2-7.4,7.4,7.4,0,0,0-7.3,7.4v4.5a7.6,7.6,0,0,0,1.6,4.6A17.5,17.5,0,0,0,389,313h36s-1.4-13.3-13-16.7" transform="translate(0 -0.3)" style="fill: #f6fffa;fill-rule: evenodd"/>
        </g>
        <g style="mask: url(#a7bf4f13-0fc5-482b-a4a2-854bcbb8e9f5)">
          <path id="b33016f1-10e8-4d92-931b-7b6e536f511a" data-name="Fill-75" d="M265,252.5a3.5,3.5,0,1,1-3.5-3.5,3.5,3.5,0,0,1,3.5,3.5" transform="translate(0 -0.3)" style="fill: #db5a28;fill-rule: evenodd"/>
        </g>
        <g style="mask: url(#a7bf4f13-0fc5-482b-a4a2-854bcbb8e9f5)">
          <path id="f966ecb6-5290-4bee-a879-6509d46f3a5c" data-name="Fill-76" d="M277,252.5a3.5,3.5,0,1,1-3.5-3.5,3.5,3.5,0,0,1,3.5,3.5" transform="translate(0 -0.3)" style="fill: #ffe780;fill-rule: evenodd"/>
        </g>
        <g style="mask: url(#a7bf4f13-0fc5-482b-a4a2-854bcbb8e9f5)">
          <path id="a406d670-d341-45c4-bf2d-e68b3c3602a8" data-name="Fill-77" d="M291,252.5a3.5,3.5,0,1,1-3.5-3.5,3.5,3.5,0,0,1,3.5,3.5" transform="translate(0 -0.3)" style="fill: #1fb288;fill-rule: evenodd"/>
        </g>
        <g style="mask: url(#a7bf4f13-0fc5-482b-a4a2-854bcbb8e9f5)">
          <polygon id="eec903ab-749f-4ae1-9b3a-757234141512" data-name="Fill-78" points="377 164.7 444 164.7 444 97.7 377 97.7 377 164.7" style="fill: #fa7671;fill-rule: evenodd"/>
        </g>
        <g style="mask: url(#a7bf4f13-0fc5-482b-a4a2-854bcbb8e9f5)">
          <path id="e2afdb23-743c-442f-8502-20537554cb77" data-name="Fill-79" d="M471.2,395.3s.6,1.7-4.8,4.2-11.2,1.5-12.7,3.6A10.4,10.4,0,0,0,452,407h31s-.2-8.3-3.7-12c.4.8-8.1.3-8.1.3" transform="translate(0 -0.3)" style="fill: #363636;fill-rule: evenodd"/>
        </g>
        <g style="mask: url(#a7bf4f13-0fc5-482b-a4a2-854bcbb8e9f5)">
          <path id="ba1ef8a4-3758-4ade-888e-af6ec58517f1" data-name="Fill-80" d="M504,395.3s.5,1.7-4.6,4.2-10.5,1.5-11.8,3.6A11.1,11.1,0,0,0,486,407h29s-.2-8.3-3.5-12c.4.8-7.5.3-7.5.3" transform="translate(0 -0.3)" style="fill: #363636;fill-rule: evenodd"/>
        </g>
        <g style="mask: url(#a7bf4f13-0fc5-482b-a4a2-854bcbb8e9f5)">
          <polygon id="b50d9c68-43ee-4cb3-b758-6883e23f3c4e" data-name="Fill-81" points="465 233.9 442.7 237.7 427 204.7 451 202.7 465 233.9" style="fill: #b3b3b3;fill-rule: evenodd"/>
        </g>
        <g style="mask: url(#a7bf4f13-0fc5-482b-a4a2-854bcbb8e9f5)">
          <path id="e88223e0-c825-475d-90bf-9c2a2789477c" data-name="Fill-82" d="M437.5,230.5h0" transform="translate(0 -0.3)" style="fill: #262845;fill-rule: evenodd"/>
        </g>
        <g style="mask: url(#a7bf4f13-0fc5-482b-a4a2-854bcbb8e9f5)">
          <path id="fb52d07a-627d-4caf-8c21-f4df87ee3b1a" data-name="Fill-83" d="M479.9,171.5s-2.9,5.8-2.9,11.1c0,3.7.5,9.1.8,12a1.5,1.5,0,0,0,2.1,1.4l4.4-1.3-.2,6.3,12.2-.2,2.7-25.5s-10.3-11.1-19.1-3.8" transform="translate(0 -0.3)" style="fill: #ffbfa4;fill-rule: evenodd"/>
        </g>
        <g style="mask: url(#a7bf4f13-0fc5-482b-a4a2-854bcbb8e9f5)">
          <path id="a1d25a95-1453-46a5-b755-68334acbbd49" data-name="Fill-84" d="M481.5,184.6s.7-5,4.6-3.9-.6,6.1-.6,6.1l3.7,6.5a11.9,11.9,0,0,0,8.7-.3s4.1-12.2,4.1-16-3.6-6.5-3.6-6.5-9.7-4.7-14.8-4.5a6,6,0,0,0-5.7,5.3s-2,3.9,0,5.6,3.6,7.7,3.6,7.7" transform="translate(0 -0.3)" style="fill: #59595b;fill-rule: evenodd"/>
        </g>
        <g style="mask: url(#a7bf4f13-0fc5-482b-a4a2-854bcbb8e9f5)">
          <path id="bb8b93e7-4bfc-4a60-b65a-b7430ef4d749" data-name="Fill-85" d="M442.9,228.8s.9-2.9-2.7-4.5c.1-.7-.7-4-1.5-4.8s-1.2,3.5-1.2,3.5-3.5-6.4-4.4-4.7,7.9,14.2,8.2,14.7,1.6-4.2,1.6-4.2" transform="translate(0 -0.3)" style="fill: #ffbfa4;fill-rule: evenodd"/>
        </g>
        <g style="mask: url(#a7bf4f13-0fc5-482b-a4a2-854bcbb8e9f5)">
          <path id="b75161f8-e1b9-4b8c-a146-73bae8a47b92" data-name="Fill-86" d="M475.6,268.5,467,340.3l1.7,55.7,10.8-.8s3.1-29.2,3.3-36.6-2-18.6-2-18.6l10.9-44.4,1.8.3.5,43.8,9.9,55.5,9.1.5s.2-28.7-.6-35.8-4.6-21.3-4.6-21.3l4-45.3a35.1,35.1,0,0,0-3.1-25.3l-33.1.5" transform="translate(0 -0.3)" style="fill: #1754be;fill-rule: evenodd"/>
        </g>
        <g style="mask: url(#a7bf4f13-0fc5-482b-a4a2-854bcbb8e9f5)">
          <path id="b4a67411-20c3-4229-9346-514e5205fc9a" data-name="Fill-87" d="M484.4,201.1s-15.2,4.8-18,7.6-10.7,31.4-10.7,31.4l-12-12-3.7,8.7s14,20.8,18.4,21.5,14.4-26.4,14.4-26.4.9,14.8,2.6,22.2a45.1,45.1,0,0,1,1,15.3c13.6,2.4,25.1,1.9,32.8-.5l3.8-28.5s5.1.6,6.8-1.2-5.9-31.3-7.5-33.6S497,201,497,201Z" transform="translate(0 -0.3)" style="fill: #ffcd51;fill-rule: evenodd"/>
        </g>
        <g style="mask: url(#a7bf4f13-0fc5-482b-a4a2-854bcbb8e9f5)">
          <path id="b5acbe0d-ede4-4389-9033-c1293fe241cc" data-name="Fill-88" d="M296.1,350s-1.7,3.8-4.7,4.5-10.9,2.4-12.1,3.5-1.3,4-1.3,4h25s0-7.7-1.5-11.7l-5.4-.3" transform="translate(0 -0.3)" style="fill: #363636;fill-rule: evenodd"/>
        </g>
        <g style="mask: url(#a7bf4f13-0fc5-482b-a4a2-854bcbb8e9f5)">
          <path id="b6893a4c-3aff-45b3-962d-0a100b18dcb8" data-name="Fill-89" d="M344.1,350s-1.7,3.8-4.7,4.5-10.9,2.4-12.1,3.5-1.3,4-1.3,4h25s0-7.7-1.5-11.7l-5.4-.3" transform="translate(0 -0.3)" style="fill: #363636;fill-rule: evenodd"/>
        </g>
        <g style="mask: url(#a7bf4f13-0fc5-482b-a4a2-854bcbb8e9f5)">
          <path id="ad6f2431-4ac3-447d-b159-f867647ad201" data-name="Fill-90" d="M340.3,108.6s-6.9-1.8-7.3-.7,10.7,4.4,10.7,4.4l10,27.5-3.7,8.8,6.8,7.4s7.6-10.1,8.2-13-17.9-32.6-17.9-32.6-3.6-11.5-4.2-12.1-7.2-.2-8.7-.2,4.4,5.9,4.4,5.9Z" transform="translate(0 -0.3)" style="fill: #ffbfa4;fill-rule: evenodd"/>
        </g>
        <g style="mask: url(#a7bf4f13-0fc5-482b-a4a2-854bcbb8e9f5)">
          <path id="ea825626-61a8-48e5-9929-8996c2677a0c" data-name="Fill-91" d="M314.3,128.7a25.1,25.1,0,0,0-4,9.4,32.1,32.1,0,0,0,.2,9.5l6-.2V153h12s.3-4.2.7-6.5,3.8-6.8,3.8-6.8l-5.4-15-7.7-.7Z" transform="translate(0 -0.3)" style="fill: #ffbfa4;fill-rule: evenodd"/>
        </g>
        <g style="mask: url(#a7bf4f13-0fc5-482b-a4a2-854bcbb8e9f5)">
          <path id="fc30dc26-51c2-4e57-bbff-488a7adbb179" data-name="Fill-92" d="M317.5,136.7s2-4.8,4.6-3-.7,5.8-.7,5.8,1.6,6.7,4.3,7.6l2.8.9s7.1-6.7,8.2-8.5-1.8-12.4-3.9-14.7-11-2.1-11.7-3.3-2.9-3.2-5.2-2.3-1.9,8.5-1.9,8.5,2.9,2.5,3.1,4.3a9.9,9.9,0,0,1-1.2,4.1Z" transform="translate(0 -0.3)" style="fill: #59595b;fill-rule: evenodd"/>
        </g>
        <g style="mask: url(#a7bf4f13-0fc5-482b-a4a2-854bcbb8e9f5)">
          <path id="a8fb8b64-e5da-4d8b-b483-0d9b2baebf77" data-name="Fill-93" d="M305.8,153.9s11.8-1.7,18.6-1.9,17.7,3.4,17.7,3.4L350,147l10,9.4s-8.5,12.6-11.3,15.5-4.8,16.7-5.4,20.9-2.2,28.6-2.2,28.6-7.2,8.6-37.1-.8c-.3-.3,1.2-17.9,1.1-22.2s-4-19-4.8-22.6-13.1-10.6-13.1-10.6-1.5-8.7,4.2-12.9c.7.5,14.4,1.6,14.4,1.6" transform="translate(0 -0.3)" style="fill: #1754be;fill-rule: evenodd"/>
        </g>
        <g style="mask: url(#a7bf4f13-0fc5-482b-a4a2-854bcbb8e9f5)">
          <path id="f195b861-0e8b-4bf8-b4a1-62ed2cc50db9" data-name="Fill-94" d="M278,118s-4.5,4.2-4.8,5.9,6.1,21.2,6.1,21.2l11.7,7L286.9,165s-12.8-9-14.6-11.7-5-29.1-5-29.1-4.2-5.2-4.5-6.6-1.3-6-.5-6.9,5.4-5.9,6.1-4.4,3.2,12.2,3.2,12.2,5.3-2.3,6.4-.5" transform="translate(0 -0.3)" style="fill: #ffbfa4;fill-rule: evenodd"/>
        </g>
        <g style="mask: url(#a7bf4f13-0fc5-482b-a4a2-854bcbb8e9f5)">
          <path id="a4f798d7-1848-427e-8013-65f6931ac2cd" data-name="Fill-95" d="M304.3,220.5l-6.8,63.6L294,351.5l11.7.5s7.2-44.8,7.3-51.6-.1-14.9-.1-14.9l7.5-34h4.2l8.6,44.2,8.8,54.9,9.4.5s1.4-34.2,0-41.2-3.5-13.7-3.5-13.7l-4.2-45.8s3.7-16.3-2.1-29.1c-1.2-2.3-37.3-.8-37.3-.8" transform="translate(0 -0.3)" style="fill: #ffcd51;fill-rule: evenodd"/>
        </g>
        <g style="mask: url(#a7bf4f13-0fc5-482b-a4a2-854bcbb8e9f5)">
          <polygon id="ae40a9ec-eb6e-4789-a392-c4fffd9524b2" data-name="Fill-96" points="234 148.4 226.4 148.4 226.4 140.7 221.6 140.7 221.6 148.4 214 148.4 214 153.1 221.6 153.1 221.6 160.7 226.4 160.7 226.4 153.1 234 153.1 234 148.4" style="fill: #e89f40;fill-rule: evenodd"/>
        </g>
        <g style="mask: url(#a7bf4f13-0fc5-482b-a4a2-854bcbb8e9f5)">
          <path id="a48508c9-47be-40fa-bd0b-f7f4f1343a65" data-name="Fill-97" d="M163,189.3a5.7,5.7,0,1,0,5.7,5.7,5.6,5.6,0,0,0-5.7-5.7m0,17.7a12,12,0,1,1,12-12,12,12,0,0,1-12,12" transform="translate(0 -0.3)" style="fill: #1754be;fill-rule: evenodd"/>
        </g>
        <g style="mask: url(#a7bf4f13-0fc5-482b-a4a2-854bcbb8e9f5)">
          <polygon id="bd5172dc-8613-4fe0-9066-cbffe3cc2658" data-name="Fill-98" points="526 98.4 518.4 98.4 518.4 90.7 513.6 90.7 513.6 98.4 506 98.4 506 103.1 513.6 103.1 513.6 110.7 518.4 110.7 518.4 103.1 526 103.1 526 98.4" style="fill: #3a6594;fill-rule: evenodd"/>
        </g>
        <g style="mask: url(#a7bf4f13-0fc5-482b-a4a2-854bcbb8e9f5)">
          <path id="b5062d8f-9430-408d-9e4c-afd9371d8ba3" data-name="Fill-99" d="M488,47.5a4.5,4.5,0,1,1-4.5-4.5,4.5,4.5,0,0,1,4.5,4.5" transform="translate(0 -0.3)" style="fill: #8cb9ff;fill-rule: evenodd"/>
        </g>
        <g style="mask: url(#a7bf4f13-0fc5-482b-a4a2-854bcbb8e9f5)">
          <path id="a0c7b012-e02a-4610-837b-584d6c0bdc5d" data-name="Fill-100" d="M397,111.3a5.7,5.7,0,1,0,5.7,5.7,5.6,5.6,0,0,0-5.7-5.7m0,17.7a12,12,0,1,1,12-12,12,12,0,0,1-12,12" transform="translate(0 -0.3)" style="fill: #feba40;fill-rule: evenodd"/>
        </g>
        <g style="mask: url(#a7bf4f13-0fc5-482b-a4a2-854bcbb8e9f5)">
          <path id="b4ba76f3-e967-4510-bc49-dab01a667aca" data-name="Fill-101" d="M459,33.3a5.7,5.7,0,1,0,5.7,5.7,5.6,5.6,0,0,0-5.7-5.7M459,51a12,12,0,1,1,12-12,12,12,0,0,1-12,12" transform="translate(0 -0.3)" style="fill: #f24250;fill-rule: evenodd"/>
        </g>
      </g>
    </g>
  </g>
</svg>
