<?xml version="1.0" encoding="UTF-8"?>
<svg id="b" data-name="Layer 3" xmlns="http://www.w3.org/2000/svg" width="128" height="128" viewBox="0 0 128 128">
  <defs>
    <style>
      .o {
        stroke: #8593a9;
      }

      .o, .p {
        fill: none;
        stroke-linecap: round;
        stroke-linejoin: round;
        stroke-width: 2px;
      }

      .p {
        stroke: #ff2038;
      }
    </style>
  </defs>
  <g id="c" data-name="Digital_Connections-3">
    <g>
      <circle class="o" cx="64" cy="64" r="63"/>
      <g>
        <line class="o" x1="80" y1="48" x2="83.5" y2="44.5"/>
        <line class="o" x1="85.68" y1="64" x2="88.84" y2="64"/>
        <line class="o" x1="80" y1="80" x2="83.5" y2="83.5"/>
        <line class="o" x1="64" y1="85.68" x2="64" y2="88.84"/>
        <line class="o" x1="48" y1="80" x2="44.5" y2="83.5"/>
        <line class="o" x1="42.32" y1="64" x2="39.16" y2="64"/>
        <line class="o" x1="48" y1="48" x2="44.5" y2="44.5"/>
        <line class="o" x1="64" y1="42.32" x2="64" y2="39.16"/>
        <circle class="o" cx="64" cy="33" r="5"/>
        <circle class="o" cx="87" cy="41" r="5"/>
        <circle class="o" cx="95" cy="64" r="5"/>
        <circle class="o" cx="87" cy="87" r="5"/>
        <circle class="o" cx="64" cy="95" r="5"/>
        <circle class="o" cx="41" cy="87" r="5"/>
        <circle class="o" cx="33" cy="64" r="5"/>
        <circle class="o" cx="41" cy="41" r="5"/>
        <circle class="p" cx="64" cy="64" r="12"/>
        <line class="p" x1="52" y1="52" x2="55" y2="55"/>
        <line class="p" x1="47" y1="64" x2="52" y2="64"/>
        <line class="p" x1="52" y1="76" x2="55" y2="73"/>
        <line class="p" x1="64" y1="81" x2="64" y2="76"/>
        <line class="p" x1="76" y1="76" x2="73" y2="73"/>
        <line class="p" x1="76" y1="64" x2="81" y2="64"/>
        <line class="p" x1="76" y1="52" x2="73" y2="55"/>
        <line class="p" x1="64" y1="52" x2="64" y2="47"/>
        <path class="p" d="m64,61c1.66,0,3,1.34,3,3s-1.34,3-3,3-3-1.34-3-3,1.34-3,3-3"/>
      </g>
    </g>
  </g>
</svg>