<?xml version="1.0" encoding="UTF-8"?>
<svg id="h" data-name="Layer 9" xmlns="http://www.w3.org/2000/svg" width="128" height="128" viewBox="0 0 128 128">
  <defs>
    <style>
      .o {
        stroke: #8593a9;
      }

      .o, .p {
        fill: none;
        stroke-linecap: round;
        stroke-linejoin: round;
        stroke-width: 2px;
      }

      .p {
        stroke: #ff2038;
      }
    </style>
  </defs>
  <g id="i" data-name="Misc_ChatHeart">
    <g>
      <g>
        <path class="o" d="m66.36,28c-18.51-.03-33.54,14.97-33.57,33.5,0,6.28,1.74,12.44,5.06,17.78l-9.86,20.72,20.7-9.87c15.74,9.8,36.44,4.97,46.23-10.79,9.79-15.76,4.97-36.48-10.77-46.28-5.34-3.32-11.51-5.08-17.8-5.07Z"/>
        <path class="p" d="m66.01,78l-14.49-15.24c-2.61-2.63-3.27-6.65-1.62-9.98,2.12-4.27,7.27-6,11.5-3.87.83.42,1.58.96,2.23,1.62l2.37,2.38,2.37-2.38c3.35-3.37,8.78-3.37,12.12,0,.65.66,1.19,1.41,1.6,2.24,1.65,3.33,1,7.35-1.62,9.98l-14.46,15.24Z"/>
      </g>
      <circle class="o" cx="64" cy="64" r="63"/>
    </g>
  </g>
</svg>