<?xml version="1.0" encoding="UTF-8"?>
<svg id="j" data-name="Layer 11" xmlns="http://www.w3.org/2000/svg" width="128" height="128" viewBox="0 0 128 128">
  <defs>
    <style>
      .o {
        stroke: #8593a9;
      }

      .o, .p {
        fill: none;
        stroke-linecap: round;
        stroke-linejoin: round;
        stroke-width: 2px;
      }

      .p {
        stroke: #ff2038;
      }
    </style>
  </defs>
  <g id="k" data-name="Misc_Rocket">
    <g>
      <g>
        <path class="o" d="m100,28l-7.48.83c-5.87.65-11.34,3.28-15.52,7.46l-34,34,14.7,14.71,34.01-34c4.18-4.17,6.81-9.65,7.46-15.52l.83-7.48Z"/>
        <path class="o" d="m42.31,69.68l-12.54-4.13c-1.36-.45-2.09-1.89-1.64-3.23.13-.38.34-.72.63-1l.8-.79c5.56-5.49,13.79-7.4,21.25-4.95l4.34,1.43-12.85,12.68Z"/>
        <path class="o" d="m58.32,85.88l4.12,12.37c.45,1.34,1.89,2.07,3.23,1.62.38-.13.72-.34,1-.62l.8-.79c5.49-5.49,7.4-13.6,4.95-20.96l-1.42-4.27-12.68,12.66Z"/>
        <path class="p" d="m48,87.53c0,2.01-.79,3.93-2.21,5.34-2.95,2.95-17.79,7.12-17.79,7.12,0,0,4.17-14.86,7.12-17.8,1.29-1.3,3.02-2.08,4.85-2.2"/>
      </g>
      <circle class="o" cx="64" cy="64" r="63"/>
    </g>
  </g>
</svg>