<?xml version="1.0" encoding="UTF-8"?>
<!DOCTYPE svg PUBLIC "-//W3C//DTD SVG 1.1//EN" "http://www.w3.org/Graphics/SVG/1.1/DTD/svg11.dtd">
<!-- Creator: CorelDRAW 2019 (64-Bit) -->
<svg xmlns="http://www.w3.org/2000/svg" xml:space="preserve" width="245px" height="78px" version="1.1" style="shape-rendering:geometricPrecision; text-rendering:geometricPrecision; image-rendering:optimizeQuality; fill-rule:evenodd; clip-rule:evenodd"
viewBox="0 0 245 78"
 xmlns:xlink="http://www.w3.org/1999/xlink"
 enable-background="new 0 0 1296 533">
 <defs>
  <style type="text/css">
   <![CDATA[
    .fil0 {fill:black}
    .fil5 {fill:#1888AC}
    .fil6 {fill:#6C98AF}
    .fil3 {fill:#7CB430}
    .fil1 {fill:#898F91}
    .fil4 {fill:#9DBE29}
    .fil2 {fill:#A59793}
   ]]>
  </style>
 </defs>
 <g id="Capa_x0020_1">
  <metadata id="CorelCorpID_0Corel-Layer"/>
  <path class="fil0" d="M81.49 47.29l0 -24.69 11.4 0 0 30.15c-2.21,0.18 -1.84,0.47 -5.23,0.47 -3.5,0 -6.17,-2.43 -6.17,-5.93zm-29.91 -9.97c-8.43,0 -8.43,-8.23 -4.37,-11.02 2.85,-1.97 6.11,-2.24 9.52,-2.82 0.66,-0.12 1.47,-0.12 2.38,-0.23 0.72,-0.1 1.43,-0.12 2.45,-0.19 2.07,-0.13 1.65,-1.5 1.65,6.43 0,0.98 -1.18,2.22 -1.83,2.91 -2.32,2.42 -6.03,4.92 -9.8,4.92zm75.73 -12.58l24.45 0 0 13.29c0,0.81 -0.7,0.78 -1.42,0.96 -0.77,0.2 -1.17,0.35 -2.08,0.53 -21.47,4.31 -20.18,-13.17 -20.95,-14.78zm85.22 -2.85c0,-17.03 14.35,-19.54 20.18,-11.4 6.93,9.68 2.67,27.71 -8.52,27.45 -8.03,-0.19 -11.66,-8.39 -11.66,-16.05zm-64.1 -2.37l-20.41 0c0,-11.86 15.26,-15.36 19.43,-4.49 0.28,0.73 0.41,1.16 0.58,2.04 0.13,0.68 0.1,1.82 0.4,2.45zm-55.54 -2.38l-11.4 0 0 -10.92 -6.17 0 0 11.16 -5.94 0c0,-4.87 -0.56,-8.57 -2.79,-11.92 -4.9,-7.34 -16.44,-4.65 -23.19,-1.95 -0.76,0.3 -0.95,0.41 -1.63,0.73 -0.71,0.33 -1.2,0.46 -1.82,0.8 0.47,0.99 1.41,3.45 1.66,4.51 5,-2.65 14.69,-5.73 19.29,-0.54 2.23,2.51 2.31,6.03 2.31,9.32 -5.18,0 -11.89,0.76 -16.65,2.34 -13.73,4.54 -9.43,22.58 2.65,22.58 5.64,0 9.46,-1.45 13.11,-5.64 0.46,-0.53 0.57,-0.86 1.13,-1.24 0,2.21 0.29,4.14 0.71,5.94l6.17 0c-0.3,-1.3 -0.66,-2.41 -0.71,-4.04l-0.24 -15.67 5.94 0 0 25.16c0,3.22 1.09,6.09 2.56,7.88 3.27,3.97 10.92,3.37 15.48,2.1 2.67,-0.75 3.81,-1.67 5.7,-1.67l0 -28.96c0,-2.14 7.58,-7.59 12.1,-7.59 7.88,0 6.65,10.03 6.65,15.19l-0.01 19.24c-0.04,2.66 -0.82,2.12 6.42,2.12l0.22 -18.73 1.85 2.42c2.63,2.72 5.03,4.17 8.94,5.3 1.48,0.42 2.45,0.48 4.18,0.57 1.08,0.06 1.03,0.29 2.12,0.23 5.18,-0.27 5.82,-0.87 10.23,-1.89l0 14 6.41 0 -0.24 -28.72c0,-0.95 3.5,-3.63 4.3,-4.24 1.42,-1.08 3.81,-2.47 5.74,-2.82 2.25,-0.42 4.76,-0.27 6.38,1.08 1.21,1 2.57,4.02 2.57,6.22l0 28.72 6.17 0 0 -29.91c0,-2.58 -1.08,-4.71 -1.19,-5.94l6.89 0c0,4.11 -0.24,7.39 -0.24,11.4 0,4.01 0.24,7.45 0.24,11.63 0,4.72 0.13,6.92 2.13,9.74 0.76,1.07 2.09,1.91 3.4,2.53 3.53,1.65 8.14,0.97 11.61,0.13 1.62,-0.39 4.39,-1.29 5.65,-1.95 -0.02,-0.78 -0.71,-4.26 -0.95,-4.75 -1.96,0.45 -4.19,2.13 -9.73,2.13 -4.82,0 -6.18,-4.35 -6.18,-8.54l0 -22.08 10.69 0c0.92,0 0.73,0.76 0.72,1.65 -0.07,5.74 2.46,11.58 6.94,15.38 6.03,5.11 17.99,5.66 24.79,-2.38 5.71,-6.75 6.78,-23.19 -0.7,-30.74 -1.65,-1.66 -3.17,-3.08 -5.41,-4.09 -7.64,-3.42 -16.91,-1.76 -21.88,5.65 -0.66,0.98 -0.99,1.63 -1.54,2.74 -0.71,1.41 -1.93,4.45 -1.98,6.33l-11.63 0 0 -11.16 -5.93 0 0 11.16 -12.58 0c-0.86,0 -2.31,-0.47 -5.94,-0.47 -3.27,0 -7.21,2.28 -9.57,4.19 -0.89,0.73 -1.77,1.7 -2.53,2.22l0 -5.46c-5.2,0 -2.49,0.59 -5.2,-5.26 -1.52,-3.29 -4.36,-6.55 -7.75,-7.91 -8.4,-3.35 -17.1,-0.3 -21.47,7.24 -0.65,1.12 -2.11,4.32 -2.14,5.93l-0.48 0c-0.67,-2.53 -12.47,-7.73 -22.07,3.32l0 -20.42 -6.17 0 0 16.62z"/>
  <path class="fil1" d="M38.01 12.36c0.28,0.91 0.43,1.89 0.43,2.89 0,5.47 -4.43,9.91 -9.9,9.91 -5.47,0 -9.91,-4.44 -9.91,-9.91 0,-1.16 0.2,-2.28 0.57,-3.32 1.39,2.16 3.69,3.95 6.54,4.86 5.29,1.68 10.6,-0.3 12.27,-4.43z"/>
  <path class="fil2" d="M28.54 5.35c4.46,0 8.24,2.95 9.47,7.01 -1.67,4.13 -6.98,6.11 -12.27,4.43 -2.85,-0.91 -5.15,-2.7 -6.54,-4.86 1.37,-3.83 5.03,-6.58 9.34,-6.58z"/>
  <path class="fil3" d="M59.38 55.58c0.58,1.59 0.89,3.3 0.89,5.09 0,8.2 -6.65,14.86 -14.85,14.86 -8.21,0 -14.86,-6.66 -14.86,-14.86 0,-1.35 0.18,-2.67 0.52,-3.91 0.66,0.69 1.39,1.35 2.17,1.98 7.81,6.29 18.42,6.74 23.72,1.01 1.13,-1.23 1.93,-2.65 2.41,-4.17z"/>
  <path class="fil4" d="M45.42 45.81c6.41,0 11.88,4.07 13.96,9.77 -0.48,1.52 -1.28,2.94 -2.41,4.17 -5.3,5.73 -15.91,5.28 -23.72,-1.01 -0.78,-0.63 -1.51,-1.29 -2.17,-1.98 1.72,-6.31 7.48,-10.95 14.34,-10.95z"/>
  <path class="fil5" d="M34.38 35.77c0.5,1.63 0.77,3.36 0.77,5.15 0,9.66 -7.83,17.48 -17.49,17.48 -9.66,0 -17.48,-7.82 -17.48,-17.48 0,-2.19 0.4,-4.29 1.13,-6.22 2.15,4.99 7.69,8.98 14.61,9.9 8.46,1.13 16.13,-2.72 18.46,-8.83z"/>
  <path class="fil6" d="M17.66 23.43c7.87,0 14.52,5.19 16.72,12.34 -2.33,6.11 -10,9.96 -18.46,8.83 -6.92,-0.92 -12.46,-4.91 -14.61,-9.9 2.51,-6.59 8.88,-11.27 16.35,-11.27z"/>
 </g>
</svg>
