<?xml version="1.0" encoding="UTF-8"?>
<!DOCTYPE svg PUBLIC "-//W3C//DTD SVG 1.1//EN" "http://www.w3.org/Graphics/SVG/1.1/DTD/svg11.dtd">
<!-- Creator: CorelDRAW 2019 (64-Bit) -->
<svg xmlns="http://www.w3.org/2000/svg" xml:space="preserve" width="250px" height="55px" version="1.1" style="shape-rendering:geometricPrecision; text-rendering:geometricPrecision; image-rendering:optimizeQuality; fill-rule:evenodd; clip-rule:evenodd"
viewBox="0 0 250 55"
 xmlns:xlink="http://www.w3.org/1999/xlink"
 enable-background="new 0 0 1296 533">
 <defs>
  <style type="text/css">
   <![CDATA[
    .fil1 {fill:#005195}
    .fil0 {fill:#FF8509}
   ]]>
  </style>
 </defs>
 <g id="Capa_x0020_1">
  <metadata id="CorelCorpID_0Corel-Layer"/>
  <path class="fil0" d="M116.15 37.56c0,-3.56 1.5,-4.59 3.93,-4.86 2.23,-0.25 4.83,-0.43 6.85,0.5l0 7.24c-0.81,0.13 -10.78,1.95 -10.78,-2.88zm-2.46 -18.63l0.57 4.09c5.42,-1.04 11.84,-3.78 12.67,6.21 -6.49,-1.52 -15.69,-1 -15.69,7.57 0,10.24 13.16,8.75 20.11,7.14 0,-7.1 1.2,-19.46 -1.86,-23.16 -3.62,-4.38 -11.08,-2.95 -15.8,-1.85zm-9.99 -11.04c1.69,0 3.05,1.37 3.05,3.05 0,1.69 -1.36,3.05 -3.05,3.05 -1.68,0 -3.05,-1.36 -3.05,-3.05 0,-1.68 1.37,-3.05 3.05,-3.05zm-2.45 36.54l4.9 0 0 -25.99 -4.9 0 0 25.99zm-19.43 0c-2.37,-4.12 -9.32,-18.06 -9.32,-25.99l5.4 0c1.15,7.51 4.37,15.96 6.37,19.61 2.01,-3.65 5.22,-12.1 6.38,-19.61l5.39 0c0,7.93 -6.94,21.87 -9.32,25.99l-4.9 0zm-42.97 -40.97c9.17,4.36 15.5,13.71 15.5,24.54 0,15.01 -12.17,27.17 -27.18,27.17 -8.02,0 -15.23,-3.48 -20.21,-9.01 6.57,-17.01 17.7,-31.74 31.89,-42.7z"/>
  <path class="fil1" d="M27.17 0.82c0.43,0 0.86,0.02 1.28,0.04 -10.85,12.71 -18.48,28.14 -21.82,44.93 -4.13,-4.77 -6.63,-10.99 -6.63,-17.79 0,-15.01 12.17,-27.18 27.17,-27.18zm111.53 16.64l0 26.97 4.9 0 0 -22.07 10.3 0 0 -3.92 -10.3 0c0,-8.42 3.59,-9.3 9.81,-7.85l0.71 -4.2c-4.01,-0.59 -8.97,-2.13 -13.11,2.59 -1.62,1.83 -2.31,5.19 -2.31,8.48zm31.87 3.43l0 23.54 5.4 0 0 -21.07c1.71,-1.72 4.28,-1.4 9.31,-0.82l0.49 -4.1c-2.55,-1.04 -13.14,-1.75 -15.2,2.45zm-12.26 23.54l4.91 0 0 -25.99 -4.91 0 0 25.99zm1.97 -30.41c5.11,0 4,-6.37 0.49,-6.37 -4.42,0 -3.92,6.37 -0.49,6.37zm74.29 23.54c0,-3.56 1.51,-4.59 3.93,-4.86 2.23,-0.25 4.83,-0.43 6.85,0.5l0 7.24c-0.81,0.13 -10.78,1.95 -10.78,-2.88zm-2.46 -18.63l0.57 4.09c5.42,-1.04 11.84,-3.78 12.67,6.21 -6.49,-1.52 -15.69,-1 -15.69,7.57 0,10.24 13.16,8.75 20.11,7.14 0,-7.1 1.2,-19.46 -1.86,-23.16 -3.62,-4.38 -11.08,-2.95 -15.8,-1.85zm-41.92 0.09l0 25.41 5.39 0 0 -21.07c1.68,-1.69 9.3,-1.88 9.58,3.42l0 17.65 5.38 0.03 0 -19.09c-0.18,-0.94 -0.25,-1.6 -0.71,-2.25 2.08,-1.54 10.74,-1.32 10.74,4.31l0 17 4.9 0 0 -15.84c0,-11.11 -11.27,-13.55 -20.05,-9.69 -3.78,-2.01 -9.49,-2.5 -15.23,0.12z"/>
 </g>
</svg>
