<?xml version="1.0" encoding="utf-8"?>
<!-- Generator: Adobe Illustrator 27.1.1, SVG Export Plug-In . SVG Version: 6.00 Build 0)  -->
<svg version="1.1" id="Layer_1" xmlns="http://www.w3.org/2000/svg" xmlns:xlink="http://www.w3.org/1999/xlink" x="0px" y="0px"
	 viewBox="0 0 240.4 118.8" style="enable-background:new 0 0 240.4 118.8;" xml:space="preserve">
<style type="text/css">
	.st0{fill:#005B97;}
	.st1{fill:none;stroke:#005B97;stroke-miterlimit:10;}
	.st2{fill:none;stroke:#005B97;stroke-linecap:round;stroke-miterlimit:10;}
</style>
<g id="BACKGROUND">
</g>
<g id="OBJECTS">
	<g>
		<path class="st0" d="M201.5,48.8v-10c0-0.3-0.3-0.6-0.6-0.6h-4.2c-0.3,0-0.6,0.3-0.6,0.6s0.3,0.6,0.6,0.6h3.6v9.4
			c-1.2,0.3-2.1,1.4-2.1,2.6c0,1.5,1.2,2.7,2.7,2.7s2.7-1.2,2.7-2.7C203.6,50.2,202.7,49.1,201.5,48.8z M200.8,52.9
			c-0.8,0-1.5-0.7-1.5-1.5s0.7-1.5,1.5-1.5s1.5,0.7,1.5,1.5C202.3,52.3,201.7,52.9,200.8,52.9z"/>
		<path class="st0" d="M208.2,48.8v-10c0-0.3-0.3-0.6-0.6-0.6h-4.2c-0.3,0-0.6,0.3-0.6,0.6s0.3,0.6,0.6,0.6h3.6v9.4
			c-1.2,0.3-2.1,1.4-2.1,2.6c0,1.5,1.2,2.7,2.7,2.7s2.7-1.2,2.7-2.7C210.3,50.2,209.4,49.1,208.2,48.8z M207.5,52.9
			c-0.8,0-1.5-0.7-1.5-1.5s0.7-1.5,1.5-1.5s1.5,0.7,1.5,1.5C209,52.3,208.3,52.9,207.5,52.9z"/>
		<path class="st0" d="M218.8,44.6c-1.3,0-2.4,0.9-2.6,2.1h-1.3v-7.9c0-0.3-0.3-0.6-0.6-0.6h-4.2c-0.3,0-0.6,0.3-0.6,0.6
			s0.3,0.6,0.6,0.6h3.6v7.9c0,0.3,0.3,0.6,0.6,0.6h2c0.3,1.2,1.4,2.1,2.6,2.1c1.5,0,2.7-1.2,2.7-2.7
			C221.5,45.8,220.3,44.6,218.8,44.6z M218.8,48.7c-0.8,0-1.5-0.7-1.5-1.5s0.7-1.5,1.5-1.5s1.5,0.7,1.5,1.5
			C220.3,48.1,219.6,48.7,218.8,48.7z"/>
		<path class="st0" d="M222.3,28.4c-0.8-1-2-1.8-3.3-2.2c-0.1-3-1.4-5.7-3.5-7.8c-2.2-2.2-5.2-3.4-8.4-3.4c-4.1,0-8,2.2-10.1,5.7
			c-0.5-0.2-1.1-0.2-1.6-0.2c-2.6,0-4.8,1.8-5.3,4.3c-3.3,0.9-5.6,3.9-5.6,7.3c0,4.2,3.4,7.5,7.5,7.5h1.5v7.3h-1.3
			c-0.3-1.2-1.4-2.1-2.6-2.1c-1.5,0-2.7,1.2-2.7,2.7s1.2,2.7,2.7,2.7c1.3,0,2.4-0.9,2.6-2.1h2c0.3,0,0.6-0.3,0.6-0.6V39
			c0-0.3-0.3-0.6-0.6-0.6h-2.1c-3.5,0-6.3-2.8-6.3-6.3c0-3,2.1-5.6,5-6.2c0.3-0.1,0.5-0.3,0.5-0.5c0.3-2.1,2-3.6,4.1-3.6
			c0.6,0,1.1,0.1,1.7,0.3c0.3,0.1,0.6,0,0.8-0.3c1.9-3.4,5.4-5.5,9.3-5.5c5.8,0,10.6,4.7,10.6,10.5c0,0.3,0.2,0.5,0.5,0.6
			c2.5,0.6,4.3,2.8,4.3,5.4c0,3-2.5,5.5-5.5,5.5h-0.3c-0.3,0-0.6,0.3-0.6,0.6s0.3,0.6,0.6,0.6h0.3c3.7,0,6.8-3,6.8-6.8
			C223.8,31.1,223.3,29.6,222.3,28.4z M189.6,48.7c-0.8,0-1.5-0.7-1.5-1.5s0.7-1.5,1.5-1.5s1.5,0.7,1.5,1.5
			C191,48.1,190.4,48.7,189.6,48.7z"/>
		<path class="st0" d="M215.1,27.3L215.1,27.3c0.4,0,0.6-0.3,0.6-0.6c0-1-0.2-2-0.6-3c-0.1-0.3-0.5-0.5-0.8-0.4s-0.5,0.5-0.4,0.8
			c0.3,0.8,0.5,1.7,0.5,2.6C214.5,27,214.8,27.3,215.1,27.3L215.1,27.3z"/>
		<path class="st0" d="M212.8,22.1c0.1,0.2,0.3,0.2,0.5,0.2c0.1,0,0.3,0,0.4-0.1c0.3-0.2,0.3-0.6,0.1-0.9c-1.6-2-4-3.1-6.6-3.1
			c-0.3,0-0.6,0.3-0.6,0.6c0,0.3,0.3,0.6,0.6,0.6C209.4,19.5,211.4,20.4,212.8,22.1L212.8,22.1z"/>
	</g>
	<g>
		<path class="st0" d="M57.3,31.7c-0.1-0.2-0.4-0.4-0.6-0.3l-3.3,0.5l0.5-3.3c0-0.3-0.1-0.5-0.3-0.6c-0.2-0.1-0.5-0.1-0.7,0.1
			l-3.8,3.8c-0.1,0.1-0.2,0.2-0.2,0.3l-0.6,4l-2.2,2.2c-3-2.8-7-4.4-11.1-4.4c-4.4,0-8.5,1.7-11.6,4.8s-4.8,7.2-4.8,11.6
			s1.7,8.5,4.8,11.6c3.1,3.1,7.2,4.8,11.6,4.8s8.5-1.7,11.6-4.8c3.1-3.1,4.8-7.2,4.8-11.6c0-3.5-1.1-6.8-3.1-9.6
			c-0.2-0.3-0.6-0.3-0.9-0.1s-0.3,0.6-0.1,0.9c1.9,2.6,2.9,5.7,2.9,8.9c0,8.3-6.8,15.1-15.1,15.1s-15.4-6.9-15.4-15.2
			s6.8-15.1,15.1-15.1c3.8,0,7.5,1.4,10.3,4l-2.8,2.8c-2-1.8-4.7-2.8-7.4-2.8c-6.1,0-11.1,5-11.1,11.1s5,11.1,11.1,11.1
			S46,56.5,46,50.4c0-2-0.6-4-1.6-5.8c-0.2-0.3-0.6-0.4-0.9-0.2s-0.4,0.6-0.2,0.9c0.9,1.5,1.4,3.3,1.4,5.1c0,5.4-4.4,9.9-9.9,9.9
			c-5.4,0-9.9-4.4-9.9-9.9s4.4-9.9,9.9-9.9c2.4,0,4.7,0.9,6.5,2.5l-2.8,2.8c-1-0.8-2.3-1.3-3.7-1.3c-3.2,0-5.9,2.6-5.9,5.9
			c0,3.2,2.6,5.9,5.9,5.9c3.2,0,5.9-2.6,5.9-5.9c0-0.6-0.1-1.1-0.2-1.7c-0.1-0.3-0.4-0.5-0.8-0.4c-0.3,0.1-0.5,0.4-0.4,0.8
			c0.1,0.4,0.2,0.9,0.2,1.3c0,2.6-2.1,4.6-4.6,4.6c-2.6,0-4.6-2.1-4.6-4.6c0-2.6,2.1-4.6,4.6-4.6c1,0,2,0.3,2.8,0.9l-3.2,3.2
			c-0.2,0.2-0.2,0.6,0,0.9c0.1,0.1,0.3,0.2,0.4,0.2c0.2,0,0.3-0.1,0.4-0.2l11.1-11.1l2.6-2.6l4-0.6c0.1,0,0.3-0.1,0.3-0.2l3.8-3.8
			C57.3,32.2,57.4,31.9,57.3,31.7L57.3,31.7z M49.9,32.6l2.4-2.4L52,32.3l-2.4,2.4L49.9,32.6z M52.6,35.2l-2.1,0.3l2.4-2.4l2.1-0.3
			L52.6,35.2z"/>
	</g>
	<g>
		<path class="st0" d="M149.1,97.5l-10.2-10.2c-0.2-0.2-0.6-0.2-0.9,0l-0.7,0.7l-1.5-1.5c2.5-2.7,3.9-6.2,3.9-10
			c0-3.9-1.5-7.6-4.3-10.4c-2.8-2.8-6.5-4.3-10.4-4.3c-3.9,0-7.6,1.5-10.4,4.3c-2.8,2.8-4.3,6.5-4.3,10.4s1.5,7.6,4.3,10.4
			s6.5,4.3,10.4,4.3c3.7,0,7.2-1.4,10-3.9l1.5,1.5l-0.7,0.7c-0.2,0.2-0.2,0.6,0,0.9l10.2,10.2c0.1,0.1,0.3,0.2,0.4,0.2
			c0.2,0,0.3-0.1,0.4-0.2l2.3-2.3C149.4,98.1,149.4,97.7,149.1,97.5z M115.5,86.1c-2.5-2.5-4-5.9-4-9.5s1.4-7,4-9.5
			c2.5-2.5,5.9-4,9.5-4c3.6,0,7,1.4,9.5,4c2.5,2.5,4,5.9,4,9.5s-1.4,7-4,9.5c-2.5,2.5-5.9,4-9.5,4C121.4,90.1,118,88.7,115.5,86.1z
			 M146.3,99.4l-9.3-9.3l1.5-1.5l9.3,9.3L146.3,99.4z"/>
		<path class="st0" d="M125,73.5c-1.7,0-3.1,1.4-3.1,3.1s1.4,3.1,3.1,3.1c1.7,0,3.1-1.4,3.1-3.1C128.1,74.9,126.7,73.5,125,73.5z
			 M125,78.5c-1,0-1.9-0.8-1.9-1.9s0.8-1.9,1.9-1.9c1,0,1.9,0.8,1.9,1.9S126.1,78.5,125,78.5z"/>
		<path class="st0" d="M130.1,74.2l1.5-1.5c0.2-0.2,0.2-0.6,0.1-0.8c-0.5-0.7-1.2-1.4-1.9-1.9c-0.2-0.2-0.6-0.1-0.8,0.1l-1.5,1.5
			c-0.2-0.1-0.4-0.2-0.5-0.2v-2.1c0-0.3-0.2-0.6-0.5-0.6c-0.5-0.1-0.9-0.1-1.3-0.1c-0.4,0-0.9,0-1.3,0.1c-0.3,0.1-0.5,0.3-0.5,0.6
			v2.1c-0.2,0.1-0.4,0.1-0.5,0.2l-1.5-1.5c-0.2-0.2-0.6-0.2-0.8-0.1c-0.7,0.5-1.4,1.2-1.9,1.9c-0.2,0.2-0.1,0.6,0.1,0.8l1.5,1.5
			c-0.1,0.2-0.2,0.4-0.2,0.5H118c-0.3,0-0.6,0.2-0.6,0.5c-0.1,0.5-0.1,0.9-0.1,1.3s0,0.9,0.1,1.3c0.1,0.3,0.3,0.5,0.6,0.5h2.1
			c0.1,0.2,0.1,0.4,0.2,0.5l-1.5,1.5c-0.2,0.2-0.2,0.6-0.1,0.8c0.5,0.7,1.2,1.4,1.9,1.9c0.2,0.2,0.6,0.1,0.8-0.1l1.5-1.5
			c0.2,0.1,0.4,0.2,0.5,0.2v2.1c0,0.3,0.2,0.6,0.5,0.6c0.5,0.1,0.9,0.1,1.3,0.1c0.4,0,0.9,0,1.3-0.1c0.3-0.1,0.5-0.3,0.5-0.6v-2.1
			c0.2-0.1,0.4-0.1,0.5-0.2l1.5,1.5c0.2,0.2,0.6,0.2,0.8,0.1c0.7-0.5,1.4-1.2,1.9-1.9c0.2-0.2,0.1-0.6-0.1-0.8l-1.5-1.5
			c0.1-0.2,0.2-0.4,0.2-0.5h2.1c0.3,0,0.6-0.2,0.6-0.5c0.1-0.5,0.1-0.9,0.1-1.3s0-0.9-0.1-1.3c-0.1-0.3-0.3-0.5-0.6-0.5h-2.1
			C130.2,74.5,130.2,74.4,130.1,74.2L130.1,74.2z M131.9,76.6c0,0.2,0,0.4,0,0.6h-2c-0.3,0-0.5,0.2-0.6,0.5
			c-0.1,0.4-0.3,0.8-0.5,1.1c-0.1,0.2-0.1,0.6,0.1,0.8l1.4,1.4c-0.3,0.3-0.6,0.6-0.9,0.9l-1.4-1.4c-0.2-0.2-0.5-0.2-0.8-0.1
			c-0.4,0.2-0.7,0.4-1.1,0.5c-0.3,0.1-0.5,0.3-0.5,0.6v2c-0.4,0-0.8,0-1.2,0v-2c0-0.3-0.2-0.5-0.5-0.6c-0.4-0.1-0.8-0.3-1.1-0.5
			c-0.2-0.1-0.6-0.1-0.8,0.1l-1.4,1.4c-0.3-0.3-0.6-0.6-0.9-0.9l1.4-1.4c0.2-0.2,0.2-0.5,0.1-0.8c-0.2-0.4-0.4-0.7-0.5-1.1
			c-0.1-0.3-0.3-0.5-0.6-0.5h-2c0-0.2,0-0.4,0-0.6s0-0.4,0-0.6h2c0.3,0,0.5-0.2,0.6-0.5c0.1-0.4,0.3-0.8,0.5-1.1
			c0.1-0.2,0.1-0.6-0.1-0.8l-1.4-1.4c0.3-0.3,0.6-0.6,0.9-0.9l1.4,1.4c0.2,0.2,0.5,0.2,0.8,0.1c0.4-0.2,0.7-0.4,1.1-0.5
			c0.3-0.1,0.5-0.3,0.5-0.6v-2c0.4,0,0.8,0,1.2,0v2c0,0.3,0.2,0.5,0.5,0.6c0.4,0.1,0.8,0.3,1.1,0.5c0.2,0.1,0.6,0.1,0.8-0.1l1.4-1.4
			c0.3,0.3,0.6,0.6,0.9,0.9l-1.4,1.4c-0.2,0.2-0.2,0.5-0.1,0.8c0.2,0.4,0.4,0.7,0.5,1.1c0.1,0.3,0.3,0.5,0.6,0.5h2
			C131.9,76.2,131.9,76.4,131.9,76.6L131.9,76.6z"/>
		<path class="st0" d="M134,69.5c-0.2-0.3-0.6-0.3-0.9-0.1c-0.3,0.2-0.3,0.6-0.1,0.9c3.2,4,2.9,9.9-0.8,13.5c-4,4-10.4,4-14.4,0
			s-4-10.4,0-14.4c3.7-3.7,9.5-4,13.5-0.8c0.3,0.2,0.7,0.2,0.9-0.1c0.2-0.3,0.2-0.7-0.1-0.9c-4.5-3.6-11.1-3.2-15.2,0.9
			c-4.5,4.5-4.5,11.7,0,16.2c2.2,2.2,5.2,3.3,8.1,3.3c2.9,0,5.8-1.1,8.1-3.3C137.2,80.6,137.6,74.1,134,69.5L134,69.5z"/>
	</g>
	<path class="st1" d="M35.9,81.9L35.9,81.9C17.5,81.9,2.6,67,2.6,48.6l0,0c0-18.4,14.9-33.3,33.3-33.3l0,0
		c18.4,0,33.3,14.9,33.3,33.3l0,0C69.2,67,54.3,81.9,35.9,81.9z"/>
	<path class="st1" d="M129,114.7L129,114.7c-18.4,0-33.3-14.9-33.3-33.3l0,0c0-18.4,14.9-33.3,33.3-33.3l0,0
		c18.4,0,33.3,14.9,33.3,33.3l0,0C162.2,99.8,147.3,114.7,129,114.7z"/>
	<path class="st1" d="M204.7,68.3L204.7,68.3c-18.4,0-33.3-14.9-33.3-33.3l0,0c0-18.4,14.9-33.3,33.3-33.3l0,0
		C223.1,1.7,238,16.6,238,35l0,0C238,53.4,223.1,68.3,204.7,68.3z"/>
	<line class="st2" x1="72.8" y1="59.4" x2="92.9" y2="67.4"/>
	<line class="st2" x1="162.2" y1="60.9" x2="171.4" y2="54.8"/>
</g>
</svg>
